<svg width="40" height="32" viewBox="0 0 40 32" fill="none" xmlns="http://www.w3.org/2000/svg">
<g clip-path="url(#clip0_141_18)">
<path d="M10 4.65517C10 7.22615 6.66667 12.4138 5 15C3.33333 12.4138 0 7.22615 0 4.65517C0 2.08419 2.23858 0 5 0C7.76142 0 10 2.08419 10 4.65517Z" fill="#B8C1D9"/>
<path d="M40 21.6552C40 24.2262 36.6667 29.4138 35 32C33.3333 29.4138 30 24.2262 30 21.6552C30 19.0842 32.2386 17 35 17C37.7614 17 40 19.0842 40 21.6552Z" fill="#B8C1D9"/>
<circle cx="5" cy="5" r="2" fill="#344573"/>
<circle cx="35" cy="22" r="2" fill="#344573"/>
<path d="M10.3238 4.61903L20.8769 4.61903V4.61903C24.5093 4.61903 26.1273 9.18242 23.3061 11.4706L19.086 14.8933C16.1598 17.2667 17.838 22 21.6056 22L29.5 22" stroke="#B8C1D9"/>
</g>
<defs>
<clipPath id="clip0_141_18">
<rect width="40" height="32" fill="white"/>
</clipPath>
</defs>
</svg>
