<svg width="115" height="109" viewBox="0 0 115 109" fill="none" xmlns="http://www.w3.org/2000/svg">
<path d="M78.962 25.6047C87.8238 27.848 96.4407 24.2862 98.1106 17.6896C99.7804 11.093 93.896 3.86042 85.0342 1.61713C76.1723 -0.626156 67.5555 2.93563 65.8856 9.53221C64.2158 16.1288 70.1001 23.3614 78.962 25.6047ZM28.8586 101.62L43.5943 77.2728L57.4763 93.5493L48.368 129.531L64.4805 133.609L75.8658 88.6326L61.9838 72.3562L71.3717 55.5891C79.5678 67.2356 94.1622 77.3112 111.886 81.7978L114.922 69.804C99.6152 65.9293 88.2432 56.6694 83.9235 46.6423L78.2962 35.0079C75.9845 30.594 71.758 26.9717 66.1186 25.5441C63.7017 24.9323 61.9387 25.1241 59.5218 24.5123L14.2897 27.1008L7.15483 55.2862L23.2673 59.3649L28.4287 38.9755L43.9925 38.4485L18.8064 83.7604L-19.1512 67.7707L-25.4098 78.9487L28.8586 101.62Z" fill="#344573"/>
</svg>
