<svg width="32" height="30" viewBox="0 0 32 30" fill="none" xmlns="http://www.w3.org/2000/svg">
<path d="M14.2222 23.3333C14.2222 24.25 15.0222 25 16 25C16.9778 25 17.7778 24.25 17.7778 23.3333C17.7778 22.4167 16.9778 21.6667 16 21.6667C15.0222 21.6667 14.2222 22.4167 14.2222 23.3333ZM14.2222 0V6.66667H17.7778V3.46667C23.8044 4.28333 28.4444 9.11667 28.4444 15C28.4444 21.45 22.88 26.6667 16 26.6667C9.12 26.6667 3.55556 21.45 3.55556 15C3.55556 12.2 4.60444 9.63333 6.36444 7.63333L16 16.6667L18.5067 14.3167L6.41778 2.98333V3.01667C2.52444 5.75 0 10.0833 0 15C0 23.2833 7.14667 30 16 30C24.8356 30 32 23.2833 32 15C32 6.71667 24.8356 0 16 0H14.2222ZM26.6667 15C26.6667 14.0833 25.8667 13.3333 24.8889 13.3333C23.9111 13.3333 23.1111 14.0833 23.1111 15C23.1111 15.9167 23.9111 16.6667 24.8889 16.6667C25.8667 16.6667 26.6667 15.9167 26.6667 15ZM5.33333 15C5.33333 15.9167 6.13333 16.6667 7.11111 16.6667C8.08889 16.6667 8.88889 15.9167 8.88889 15C8.88889 14.0833 8.08889 13.3333 7.11111 13.3333C6.13333 13.3333 5.33333 14.0833 5.33333 15Z" fill="#B8C1D9"/>
</svg>
